<svg width="1686" height="1828" viewBox="0 0 1686 1828" fill="none" xmlns="http://www.w3.org/2000/svg">
<path d="M198.02 1499.55L24 560.64C-0.879955 426.38 87.7801 297.37 222.04 272.49L1153.68 99.81C1287.94 74.93 1416.95 163.59 1441.83 297.85L1615.85 1236.76C1640.73 1371.02 1552.07 1500.03 1417.81 1524.91L486.17 1697.59C351.92 1722.47 222.91 1633.81 198.02 1499.55Z" fill="#E1DDAE"/>
<path d="M514.79 219.61C500.35 225.45 483.35 231.16 469.92 223.26C458.4 216.49 454.03 202.04 452.59 188.76C449.85 163.62 454.2 137.74 465.02 114.87C467.26 110.12 468.77 102.72 463.76 101.13C462.17 100.62 460.44 101.04 458.83 101.52C430.66 109.97 410.4 139.48 412.63 168.8C414.86 198.12 439.36 224.23 470.16 230.84C393.54 241.38 324.19 294.51 294.06 365.75C240.31 380.22 206.82 435.98 197.7 490.89C188.58 545.8 198.15 601.84 200.38 657.46C201.9 695.35 200.03 733.63 206.99 770.91C213.95 808.19 231.21 845.5 260.27 866.33C261.27 899.06 280.31 930.68 308.77 946.88C337.23 963.08 374.13 963.31 402.79 947.46C392.76 941.52 378.87 949.49 375.37 960.6C371.88 971.72 376.19 983.88 382.55 993.64C388.91 1003.4 397.29 1011.76 403.29 1021.75C414 1039.58 416.23 1062.26 409.2 1081.83C411.78 1063.03 420.73 1045.17 434.24 1031.85C468.4 1084.14 483.72 1148.46 476.79 1210.54C468.2 1200.03 452.1 1201.14 438.68 1203.2C423.89 1205.47 408.4 1208.03 396.52 1217.13C377.65 1231.58 373.28 1258.07 373.32 1281.83C373.36 1305.6 376.14 1330.5 368.98 1347.06C270.73 1412.11 167.48 1469.62 61.84 1523.88C157.62 1577.94 247.6 1641.71 342.43 1697.42C437.26 1753.13 538.45 1801.23 646.82 1820C755.19 1838.77 872.06 1825.89 964.95 1766.99C1065.93 1702.95 1127.6 1593.74 1186.18 1489.31C1186.18 1489.95 1186.18 1490.6 1185.84 1494.7C1131.12 1469.12 1076.39 1443.53 1021.67 1417.95C1000.21 1407.92 977.75 1397.06 964.22 1377.61C952.5 1360.76 949.07 1339.64 940.77 1320.87C908.8 1248.53 810.07 1219.59 787.9 1143.67C808.3 1123.27 828.7 1102.87 848.56 1083.88C917.37 1001.38 956.91 894.94 958.64 787.52C958.97 767.08 958 746.35 962.74 726.46C967.47 706.57 979.03 687.08 997.64 678.62C991.52 609.45 985.31 539.8 966.49 472.96C947.67 406.12 915.26 341.5 863.87 294.79C829.36 263.42 787.56 241.17 744.89 222.33C719.91 211.3 692.97 201.13 665.96 205.09C637.36 209.29 613.55 228.55 586.87 239.67C560.17 250.77 523.24 250.32 514.79 219.61Z" fill="white"/>
<path d="M1060.47 893.71C1049.69 934.01 1025.89 970.73 993.49 997.02C1027.18 1008.66 1053.22 1040.01 1058.49 1075.26C1065.53 1049.81 1080.47 1026.61 1100.72 1009.67C1104.04 1006.89 1107.86 1003.51 1107.48 999.19C1107.07 994.56 1102.17 991.94 1098.07 989.76C1068.39 973.99 1051.66 937.13 1060.47 893.71Z" fill="white"/>
<path d="M1569.52 446.39C1552.81 488.26 1523.46 525 1486.32 550.55C1532.52 558.29 1572.48 595.26 1583.8 640.72C1591.69 619.27 1599.68 597.61 1612.25 578.52C1624.82 559.43 1642.56 542.87 1664.4 536.14C1622.76 519.53 1587.97 486.43 1569.52 446.39Z" fill="white"/>
<path d="M1019.05 160.05C1016.26 180.17 1004.99 198.98 988.56 210.94C998.76 213.01 1006.99 220.93 1011.96 230.07C1016.93 239.21 1019.13 249.56 1021.28 259.74C1028.64 240.32 1042.17 223.3 1059.43 211.74C1043.77 198.78 1030.2 183.28 1019.05 160.05Z" fill="white"/>
<path d="M230.22 109.15C232.67 125.28 224.92 142.51 211.23 151.38C208.16 153.37 204.39 155.67 204.38 159.33C204.37 162.69 207.6 165.01 210.34 166.95C225.94 177.99 236.51 195.87 238.64 214.87C245.28 195.65 256.18 177.91 270.33 163.3C253.59 151.34 240.57 134.23 230.22 109.15Z" fill="white"/>
<path d="M135.42 972.86C129.49 1009.96 110.57 1044.85 82.7 1070.05C117.24 1088.25 143.1 1122.15 151.54 1160.27C155.14 1122.38 172.67 1085.97 200.04 1059.53C170.87 1040.15 147.76 1011.78 135.42 972.86Z" fill="white"/>
<path d="M370.81 901.79C355.74 894.75 334.46 888.64 331.14 869.9C328.21 857.14 337.83 847.77 346.42 840C335.28 837.3 323.96 834.69 312.46 834.5C303.35 838.71 302.38 811.8 313.7 814.49C327.46 815.67 341.84 817.45 354.6 822.9C362.34 828 362.4 839.78 358.73 847.42C355.04 854.81 348.5 860.09 342.8 865.87C351.19 873.5 362.19 877.55 372.44 882.06C374.13 882.74 375.06 884.39 375.67 886.03C377.3 890.52 377.48 902.01 370.81 901.79Z" fill="black"/>
<path d="M629.17 644.17C637.56 651.2 645.77 663.07 640.43 674.18C638.73 679.63 629.26 687.74 628.54 677.37C626.67 670.32 620.85 665.17 615.21 660.94C585.57 640.97 534.81 649.6 506.81 669.34C498.11 675.78 491.37 684.33 485.08 693.04C483.16 695.61 479.29 701.63 475.44 698.52C472.14 694.2 474.81 687.6 477.38 683.5C498.11 650.62 530.19 632.06 568.87 629.33C589.71 627.2 612.71 630.22 629.17 644.17Z" fill="black"/>
<path d="M929.18 660.92C934.62 668.62 941 677.91 935.79 687.43C925.46 705.32 928.08 671.82 896.19 661.66C869.36 651.83 835.06 657.57 817.92 681.88C813.61 686.29 813.67 697.22 806.67 697.69C797.34 691.99 806.54 675 810.86 668.13C820.4 652.4 836.88 641.4 854.62 637.06C880.83 631.23 913.26 637.73 929.18 660.92Z" fill="black"/>
<path d="M939.56 572.51C945.58 576.32 942.02 596 933.84 593.88C933.79 593.85 933.74 593.82 933.68 593.8C931.68 593.19 929.6 592.85 927.49 592.67C926.55 593.16 925.48 593.35 924.54 592.74C924.4 592.65 924.25 592.56 924.11 592.47C898.63 591.91 873.28 594.32 847.83 592.81C837.53 591.87 822.17 591.46 820.14 578.64C817.52 564.8 827.89 551.7 841.88 550.74C864.34 548.25 887.01 553.67 908.12 561.03C915.29 563.71 922.43 566.57 928.97 570.58C932.52 570.83 936.31 570.97 939.56 572.51Z" fill="black"/>
<path d="M493.24 579.66C488.39 578.63 487.94 572.24 488.5 568.19C488.47 547.2 539.83 536.89 556.71 534.29C586.09 530.76 617 530.44 644.92 541.42C651.18 543.57 658.91 546.65 658.48 554.57C662.46 554.71 668.24 553.79 669.2 558.96C670.75 564.51 668.98 576.54 661.91 577.02C636.54 575.6 611.01 578.55 585.58 577.65C561.07 577.31 536.47 575.19 512.03 577.85C505.76 578.33 499.53 579.87 493.24 579.66Z" fill="black"/>
<path d="M790.19 861.57C788.44 860.65 787.75 858.36 787.44 856.57C784.82 842.25 799.92 834.23 807.18 824.02C811.21 817.8 824.09 808.39 814.65 801.71C794.56 788.5 772.01 778.61 770.06 751.36C769.14 740.81 767.91 728.54 773.73 719.19C777.05 714.32 781.34 717.22 781.93 722.22C780.94 740.95 779.12 752.46 796.55 764.73C810.73 776.03 831.85 780.45 830.06 802.67C829.95 819.18 819.62 832.8 809.06 844.54C805.39 847.61 794.17 864.25 790.19 861.57Z" fill="black"/>
<path d="M774.77 1052.79C774.92 1051.46 774.97 1050.13 774.78 1048.81C769.7 1023.26 746.61 1006.18 723.17 998.09C714.11 994.3 704.63 993.32 695.07 993.5C692.79 994.01 690.55 994.61 688.36 995.3C680.2 997.76 672.32 1000.81 665.74 1004.38C664.71 1004.72 663.69 1005.44 662.67 1006.22C657.87 1016.08 651.63 1027.63 658.97 1037.02C676.67 1057.06 720.69 1063.87 746.5 1062.32C756.75 1061.39 766.49 1058.09 774.77 1052.79ZM775.5 936.3C781.57 936.81 787.69 937.96 793.48 939.97C786.78 930.13 776.15 923.5 763.78 924.01C744.4 924.06 725.5 931.42 711.11 944.37C711.05 944.43 710.98 944.48 710.92 944.54C731.28 936.94 753.98 935.48 775.5 936.3ZM808.17 932.71C820.68 966 815.09 1007.53 803.4 1040.41C789.7 1075.36 752.62 1089.95 717.19 1083.48C646.12 1074.09 630.42 1045.01 653.56 996.38C653.63 996.04 653.7 995.72 653.77 995.4C654.27 993.07 655.5 990.98 657.24 989.08C660.91 982.19 665.29 974.93 670.32 967.31C684.36 948 700.62 929.64 720.21 915.82C739.16 903.99 764.8 896.78 786.1 906.25C796.39 911.89 803.54 922.16 808.17 932.71Z" fill="black"/>
<path d="M873.79 672.8C889.06 683.2 895.79 702.85 894.86 720.96C894.56 743.37 886.11 786.08 855.24 776.74C825.79 766.48 825.99 726.79 832.73 701.57C837.16 683.6 854.43 667.72 873.79 672.8Z" fill="black"/>
<path d="M610.24 705.37C615.01 731.67 607.67 785.19 570.89 778.81C525.88 774.77 528.87 692.2 554.25 668.65C573.6 651.44 595.12 660.46 606.18 681.62C608.43 686.73 609.65 692.54 608.47 698.08C609.15 700.49 609.75 702.92 610.24 705.37Z" fill="black"/>
<path d="M833.8 1788.57C836.43 1798.21 826.94 1812.01 823.2 1795.63C818.98 1765.79 816.21 1735.77 812.45 1705.87C809.91 1685.63 806.97 1665.4 802.83 1645.42C801.47 1638.26 798 1631.07 800.04 1623.71C802.03 1614.88 809.04 1616.63 810.22 1624.89C823.41 1678.54 826.01 1734.04 833.8 1788.57Z" fill="black"/>
<path d="M680.78 1564.85C640.59 1552.19 600 1536.92 568.03 1508.57C556.7 1497.69 525.13 1469.97 541.84 1454.39C544.59 1453.45 546.5 1456.73 547.3 1458.88C549.91 1463.28 552.99 1467.34 556.13 1471.38C566.83 1484.48 580.19 1495.14 594.18 1504.55C621.04 1522.44 652.1 1532.88 682.59 1542.81C689.26 1545.73 689.27 1565.12 680.78 1564.85ZM543.84 1476.35C544.06 1476.24 544.28 1476.14 544.5 1476.02C544.52 1475.98 544.54 1475.94 544.57 1475.9C544.34 1476.07 544.09 1476.22 543.84 1476.35Z" fill="black"/>
<path d="M597.33 1415.51C597.4 1415.49 597.47 1415.48 597.54 1415.46C597.23 1414.81 596.89 1414.18 596.52 1413.58C592.08 1406.2 583.71 1402.29 575.79 1399.52C575.64 1399.82 575.49 1400.11 575.35 1400.41C575.35 1400.42 575.34 1400.43 575.34 1400.44C578.37 1408.86 587.32 1415.78 596.43 1415.55C596.73 1415.55 597.03 1415.53 597.33 1415.51ZM608.56 1408.38C611.79 1419.53 609.75 1439.26 594.34 1437.88C573.65 1435.79 561.03 1412.61 564.72 1393.28C564.83 1382.16 581.77 1364.03 587.42 1381.58C598.15 1386.68 605.86 1396.88 608.56 1408.38Z" fill="black"/>
<path d="M790.27 1658.08C793.63 1671.53 791.43 1698.63 772.05 1695.08C750.64 1688.4 753.66 1637.4 777.52 1637.41C787.03 1639.04 789.67 1649.84 790.27 1658.08Z" fill="black"/>
<path d="M585.6 1395.14C593.03 1392 596.69 1403.51 596.52 1413.57C596.51 1414.23 596.48 1414.9 596.43 1415.54C595.92 1422.81 593.29 1428.69 588.52 1426.58C584.37 1424.15 582.71 1419.68 580.52 1415.77C577.16 1410.95 572.37 1406.29 571.67 1400.24C570.68 1395.47 573.06 1381.93 580.02 1387.08C582.1 1389.56 583.5 1392.64 585.6 1395.14Z" fill="black"/>
<path d="M410.98 1019.86C411.15 1004.74 408.84 989.62 405.07 974.99C404.17 969.71 401.47 964.66 399.32 959.59C392.61 964.25 385.21 967.82 377.37 969.81C390.29 988.28 404.29 1000.98 410.98 1019.86ZM456.6 212.75C435.74 182.45 448.32 143.62 463.05 113.48C404.62 137.45 400.92 181.65 456.6 212.75ZM684.31 379.13C714.37 335.99 664.07 283.82 617.88 286.64C636.2 302.09 654.25 318.44 668.9 337.49C678.05 349.64 681.02 364.56 683.94 379.09C684.06 379.15 684.18 379.13 684.31 379.13ZM779.49 319.4C765.69 305.57 748.69 294.68 729.78 289.43C721.83 287.22 713.57 285.63 705.28 286.39C705.01 286.3 704.75 286.19 704.51 286.07C703.57 286.28 702.64 286.49 701.7 286.71C727.98 296.75 753.54 308.55 779.49 319.4ZM876.12 1415.67C876.83 1412.35 876.6 1408.3 876.82 1404.44C865.47 1419.87 853.37 1434.77 842.52 1450.54C833.75 1468.33 829.47 1488.29 820.83 1506.17C811.55 1528.01 799.85 1548.72 788.64 1569.61C787.65 1571.01 786.32 1573.37 784.76 1576.26C801.76 1564.41 819.31 1553.32 835.33 1540.13C871.11 1509.71 870.09 1458.58 876.12 1415.67ZM937.93 1729.68C939.95 1690.5 943.93 1651.07 938.68 1611.98C936.81 1591.81 933.2 1572.06 928.51 1552.58C935.49 1606.3 937.21 1660.73 937.28 1714.84C937.21 1733.99 935.77 1753.54 934.65 1772.54C935.06 1771.76 935.55 1771.04 936.14 1770.4C934.03 1758.94 938.7 1737.67 937.93 1729.68ZM971.96 1446.38C958.45 1417.35 947.78 1387.07 942.54 1355.33C937.68 1330.45 937.22 1303.46 913.37 1288.62C907.46 1284.04 901.67 1279.33 895.96 1274.51C895.51 1278.48 894.14 1282.06 891.99 1283.04C875.33 1293.3 863.18 1309.15 852.14 1324.99C840.37 1342.22 828.38 1359.7 821.27 1379.47C820.14 1383.72 817.72 1388.06 818.1 1392.5C818.9 1397.08 817.07 1410.21 810.15 1406C809.28 1404.69 808.58 1403.24 808.05 1401.67C806.99 1401.3 805.73 1400.32 804.25 1398.59C800.72 1387.05 802.98 1374.29 801.84 1362.31C802.35 1358.16 801.33 1351.25 800.98 1344.55C799.23 1322.91 798.96 1301.06 799.07 1279.14C793.32 1279.09 787.6 1278.83 781.88 1277.97C748.44 1270.8 717.54 1254.7 686.69 1240.4C611.38 1201.81 547.43 1143.94 496.45 1076.8C484.87 1063.3 477.94 1047.03 472.11 1030.46C471.58 1029.16 471.28 1027.23 471.24 1025.13C469.92 1023.58 468.62 1022.02 467.32 1020.45C473.93 1071.54 479.07 1122.76 481.86 1174.16C481.84 1174.72 481.82 1175.28 481.79 1175.84C481.77 1176.36 481.76 1176.88 481.75 1177.41C481.75 1177.44 481.75 1177.47 481.75 1177.49C481.74 1178.04 481.73 1178.58 481.73 1179.13C481.73 1181.87 481.85 1184.61 482.07 1187.36C482.12 1187.99 482.17 1188.62 482.23 1189.25C482.23 1189.3 482.24 1189.35 482.24 1189.39C482.29 1189.94 482.34 1190.49 482.4 1191.03C482.42 1191.27 482.45 1191.51 482.47 1191.74C482.59 1192.87 482.71 1193.99 482.85 1195.11C482.85 1195.11 482.85 1195.11 482.85 1195.12C483.01 1196.43 483.19 1197.73 483.37 1199.04C483.4 1199.26 483.43 1199.47 483.46 1199.69C483.32 1199.75 483.18 1199.8 483.04 1199.86C483.41 1209.5 483.69 1219.14 483.88 1228.79C484.28 1230.82 484.4 1234.79 483.99 1238.58C516.61 1248.86 549.04 1259.85 580.79 1272.47C601.71 1284.09 600.04 1320.45 608.36 1341.12C614.6 1363.34 628.97 1381.82 644.18 1398.71C657.57 1411.55 668.03 1427.42 670.89 1446.06C672.41 1454.67 673.15 1463.41 673.76 1472.12C675.05 1484.52 672.5 1498.63 681.47 1508.71C694.07 1526.21 749.8 1562.87 760.79 1587.91C764.14 1582.02 768.59 1576.27 770.93 1571.37C776.7 1561.42 782.09 1551.27 787.54 1541.14C805.68 1509.6 819.43 1476.24 831.02 1441.95C844.27 1416.09 865.6 1395.25 881.31 1370.86C891.05 1356.81 899.58 1342 908.25 1327.28C911.61 1322.9 913.15 1315.29 919.04 1313.94C926.09 1316.1 925.43 1327.44 922.99 1333.01C921.12 1335.67 919.3 1338.37 917.54 1341.11C918.88 1346.13 918.19 1354.02 918.05 1356.96C919.26 1376.71 926.56 1395.89 939.04 1411.27C944.51 1418.55 958.61 1431.97 971.96 1446.38ZM954.7 602.74C955.5 599.22 954.81 577.73 956.45 562.86C932.51 514.77 906.72 467.38 891.94 415.49C888.67 404.54 885.44 393.57 882.53 382.51C867.3 423.15 839.2 458.06 806.14 486C787.01 500.87 753.89 530.58 730.28 533.25C714.98 532.14 713.49 512.02 715.66 500.21C718.28 485.4 725.8 471.98 733.36 459.17C697.01 481.28 632.46 509.71 589.75 502.35C570.96 493.6 576.39 466.93 586.14 453.01C551.13 479.69 518.72 510 491.71 544.85C475.2 566.04 459.46 587.82 443.87 609.7C444.61 615.83 441.52 621.37 439.46 626.97C421.52 679.67 419 736.08 404.5 789.65C402.58 796.63 400.08 804.88 393.63 808.99C359.66 821.18 345.77 768.4 313.99 767.1C279.1 763.75 259.58 801.17 257.92 831.41C255.81 887.13 300.34 941.76 355.99 949.01C374.01 950.91 391.29 943.49 404.08 931C408.05 928.59 413.14 917.98 417.81 920.17C420.93 922.47 421.99 926.54 422.16 930.44C425.87 932.75 427.44 938.68 430.27 941.82C473.69 1014.71 536.75 1075.94 611.37 1116.48C652.49 1136.57 697.01 1157.45 743.68 1149.89C792.41 1135.72 826.42 1092.98 858.74 1056.24C919.99 978.41 959.27 880.54 953.75 780.53C953.13 757.9 952.5 735.26 952.87 712.61C944.54 705.51 951.23 685.24 950.59 675.32C952.3 651.15 953.51 626.94 954.7 602.74ZM1191.85 1482.14C1193.26 1487.12 1191.85 1500.25 1184.56 1497.62C1161.63 1483.03 1135.29 1476.11 1109.83 1467.37C1064.73 1452.11 1019.44 1435.12 979.48 1408.82C978.9 1408.44 978.32 1408.04 977.74 1407.62C985.99 1420.93 997.17 1432.31 1010.3 1440.89C1035.13 1456.57 1062.52 1467.75 1088.88 1480.59C1103.8 1487.45 1118.81 1494.11 1133.81 1500.8C1145.97 1504.41 1149.61 1518.13 1147.89 1529.5C1141.36 1566.37 1117.62 1597.15 1099.99 1629.35C1073.74 1683.45 1037.47 1732.99 987.96 1768C979.98 1773.91 941.18 1796.62 935.12 1788.67C933.85 1786.35 933.09 1783.22 933.06 1780.08C931.2 1783.73 928.01 1785.84 925.12 1780.41C921.02 1765.45 926.25 1749.04 925.7 1733.59C927.05 1658.66 924.23 1583.02 909.72 1509.33C905.57 1481.51 893.04 1455.67 886.65 1428.53C884.31 1449.17 879.79 1472.08 879.48 1477.19C872.4 1535.62 846.71 1560.02 799.12 1590.11C782.89 1600.55 767.53 1612.54 752.84 1624.95C727.82 1642.38 740.26 1677.17 740.87 1702.71C743.48 1727.83 745.72 1753 748.63 1778.09C748.95 1785.38 757.94 1818.29 743.91 1812.13C737.55 1799.6 738.69 1783.97 736.33 1770.21C735.03 1758.15 733.83 1746.07 732.63 1734C730.42 1709.5 726.91 1685.07 726.51 1660.45C725.55 1633.38 732.64 1616.45 751.97 1600.98C737.25 1583.07 719.89 1567.63 702.1 1552.83C687.31 1540.05 669.99 1527.02 665.51 1506.88C662.39 1491.67 663.65 1475.89 661.47 1460.53C660.47 1444.34 651.78 1430.6 640.21 1419.75C628.38 1406.51 616.78 1392.73 608.53 1376.92C594.66 1352.42 594.81 1322.77 583.07 1297.77C573.09 1289.56 559 1287.77 547.31 1282.5C515.38 1271.17 483.18 1260.53 450.72 1250.86C449.74 1251.57 448.52 1251.83 447.03 1251.44L447.41 1251.65C434.65 1246.86 421.23 1243.24 408.95 1237.33C406.65 1235.1 405.42 1232.07 405.04 1228.83C395.71 1231.42 386.12 1233.73 379.07 1239.63C369.64 1258.46 379.27 1312.4 374.63 1344.35C395.76 1404.58 410.07 1467.81 436.33 1526.06C449.94 1516.16 454.58 1496.86 462.98 1482.61C468.26 1471.77 473.55 1460.94 478.54 1449.98C499.77 1404.82 505.18 1354.53 522.08 1307.93C525.54 1298.5 532.24 1305.84 532.1 1312.71C532.93 1319.96 528.53 1326.33 526.84 1333.15C523.58 1343.85 520.75 1354.64 518.07 1365.49C508.36 1409.45 494.29 1452.18 474.11 1492.4C475.07 1491.19 476.32 1490.42 477.84 1490.92C479.83 1491.38 481.06 1492.97 481.79 1494.91C488.08 1503.6 493.55 1512.91 498.78 1522.26C510.73 1543.95 523.08 1565.41 534.48 1587.41C557.77 1629.66 573.93 1675.31 597.55 1717.34C610.26 1741.94 624.68 1765.6 638.96 1789.31C641.21 1791.04 642.5 1794.4 642.96 1798.02C647.81 1801.59 646.68 1811.51 644.34 1816.27C643.24 1822.76 615.38 1817.93 609.46 1817.99C495.62 1806.85 470.5 1786.63 380.49 1723.16C340.41 1697.1 297.06 1676.53 256.73 1650.81C241.39 1641.57 226.2 1631.15 208.62 1626.73C204.37 1626.6 202.32 1621.81 202.18 1616.68C177.08 1604.91 144.59 1584.87 140.2 1561.91C135.83 1529.78 171.72 1515.37 195.43 1503.83C259.01 1475.4 281.27 1467.01 328.59 1525.82C315.5 1499.83 301.78 1477.45 330.72 1455.84C336.06 1451.64 379 1421.24 387.18 1424.85C380.68 1404.65 374.14 1383.59 367.76 1363.57C366.15 1365.5 364.26 1366.96 362.02 1367.87C326.15 1381.58 330.44 1379.45 303.5 1406.92C285.87 1423.25 264.03 1433.9 242.79 1444.72C202.43 1465.07 159.56 1479.88 119.07 1499.96C99.09 1509.96 79.56 1520.81 59.73 1531.1C59.1 1531.44 58.51 1531.6 57.96 1531.6C54.91 1531.6 53.06 1526.91 52.66 1524.03C51.99 1519.42 52.22 1513 56.2 1509.9C113.92 1476.7 175.89 1452.69 236.27 1425.01C266.59 1410.74 295.56 1393.55 317.56 1367.82C329.1 1353.61 349.04 1353.61 363.13 1343.58C367.31 1308.24 360.16 1272.09 366.59 1236.99C370.01 1212.9 388.43 1212.05 407.54 1205.33C429.02 1198.23 450.23 1190.31 471.27 1182.01C471.12 1177.27 470.86 1172.56 470.41 1167.89C469.32 1141.6 467.07 1115.39 464.05 1089.27C456.7 1089.95 437.22 1059.07 434.42 1053.27C430.09 1065.83 421.33 1090.93 406.01 1091.7C394.34 1084.18 401.17 1067.55 402.44 1056.43C412.13 1020.28 373.58 1000.81 361.15 971.54C360.71 971.52 360.27 971.5 359.84 971.47C310.27 967.14 271.51 928.72 255.12 882.84C254.2 882.98 253.12 882.77 251.87 882.11C247.15 877.96 236.19 865.56 229.3 853.43C228 853.62 226.44 852.79 224.63 850.46C197.58 801.21 186.13 744.25 196.07 688.64C189.89 699.92 149.4 769.4 151.15 723.15C163.85 697.82 185.46 676.2 191.48 647.39C201.41 605.88 179.32 565.49 181.76 523.79C182.79 453.36 231.41 397 280 351.01C282.65 349 286.64 344.68 290.71 341.43C294.88 334.02 300.03 326.88 302.9 321.04C333.85 267.44 391.67 245.77 448.63 230.82C412.25 210.75 390.03 160.15 416.96 124.02C424.32 110.1 474.58 70.23 478.7 102.65C479.93 111.07 476.41 118.94 472.85 126.34C465.5 143.4 455.76 160.91 457 180.05C459.1 198.58 479.32 214.13 497.42 214.19C507.02 211.78 514.87 183.38 521.59 174.23C546.85 126.08 595.96 84.76 652.93 88.68C670.07 91.23 700.74 92.31 700.9 115.28C701.56 132.51 681.22 125.09 670.39 127.31C658.34 127.9 646.32 129.08 634.49 131.43C599.02 138.04 569.97 161.29 548.06 188.91C536.41 203.24 524.98 218.01 516.01 234.21C513.58 238.4 515.67 245.06 510.61 247.64C504.51 248.45 503.69 239.42 503.35 235.03C503.05 235.18 502.75 235.32 502.44 235.45C504.57 247.78 499.59 253.96 487.28 248.6C476.45 248.23 465.61 249.58 455.06 251.98C386.7 270.08 339.66 287.99 305.39 346.5C305.94 350.54 305.54 354.89 303.06 358.11C300.98 359.48 298.92 360.91 296.9 362.38C296.4 363.4 295.91 364.42 295.42 365.46C293.96 369.54 290.39 373.96 287.15 369.97C264.07 389.13 244.7 413.81 226.27 437.19C203.57 468.18 189.48 506.09 193.63 544.67C197.5 575.56 207.84 605.97 204.9 637.43C217.52 630.36 213.82 660.39 212.03 666.44C208.8 684.06 205.59 701.71 204.29 719.59C203 739.7 204.38 760 209.61 779.51C214.32 796.01 220.75 811.99 228.24 827.43C228.62 827.23 229.02 827.05 229.44 826.88C231.69 827.27 232.9 830.2 233.63 832.02C237.53 839.7 242.29 846.95 247.86 853.53C246.37 842.76 246.14 831.89 247.3 821.22C248.33 808.35 252.1 794.48 258.25 782.13C257.22 782.08 256.1 781.42 254.92 779.93C231.16 743.63 242.39 699.13 242.73 658.66C242.43 638.24 240.14 617.93 237.63 597.67C235.03 579.86 227.03 516.49 260.59 544.87C263.89 496.03 280.09 447.79 309.59 408.48C324.31 388.87 341.12 370.66 360.61 355.7C369.48 349.89 397.45 326.56 406.05 338.25C410.14 345.63 408.07 354.85 404.14 361.87C393.63 379.98 382.07 397.54 372.41 416.14C407.53 372.93 445.37 332.12 483.67 291.73C492.13 282.58 500.5 273.34 509.1 264.31C512.15 261.5 515.13 257.99 518.51 255.27C517.04 248.99 518.82 239.45 523.92 237.05C572.27 199.77 635.54 185.01 695.61 181.8C747.99 180.02 798.3 198.24 850.25 201.76C861.16 202.37 872.13 203.54 883.05 202.82C892.61 198.92 893.57 213.88 891.21 219.89C890.29 223.01 887.78 224.88 884.54 225.03C868.39 230.34 852.46 236.37 836.13 241.16C865.28 256.49 889.76 278.49 915.2 299.04C934.04 313.7 954.19 327.66 968.87 346.78C990.73 375.23 1000.84 410.99 1005.05 446.13C1005.9 457.5 1010.29 471.88 1001.66 481.17C1030.33 538.79 1028.24 605.13 1026.17 667.8C1024.68 687.95 1040.87 702.52 1058.69 708.37C1064.92 712.82 1064.63 723.27 1061.04 729.36C1052.87 737.63 1038.58 733.19 1029.22 729.12C1014.3 722.2 1004.29 708.21 994.82 695.29C992.68 705.21 975.34 747.78 964.37 756.64C964.86 775.63 965.3 794.62 964.8 813.62C964.7 890.32 936.61 964.16 897.58 1029.26C873.11 1069.68 841.57 1105.57 806.36 1136.96C806.01 1137.28 805.65 1137.6 805.3 1137.92C805.59 1138.78 805.85 1139.77 806.06 1140.88C807.85 1152.02 808.7 1163.28 809.18 1174.58C810.27 1175.13 811.46 1176.06 812.76 1177.43C840.06 1198.23 865.19 1224.31 891.12 1246.12C923.6 1273.46 944.32 1281.95 949.48 1328.17C951.84 1342.28 954.55 1356.36 958.02 1370.23C958.99 1369.23 960.24 1368.69 961.82 1369.01C992.09 1398.9 1032.57 1415.13 1071.51 1430.85C1096.88 1443.33 1181.72 1461.33 1191.85 1482.14Z" fill="black"/>
<path d="M1061.83 1098.27C1057.8 1098.82 1053.41 1082.16 1050.82 1078.48C1041.67 1059.03 1031.62 1039.78 1015.73 1025.57C1007.15 1017.46 995.71 1014.74 984.45 1012.68C976.44 1008.81 977.51 994.67 983.62 989.42C993.65 982.84 1003.49 975.81 1012.35 967.67C1033.56 948.17 1048.58 921.37 1050.7 892.35C1051.31 869.12 1064.83 870.69 1062.34 890.17L1062.37 890.18C1059.79 931.43 1040.13 971 1006.88 996.03C1019.5 1001.75 1029.16 1012.63 1037.03 1023.42C1049.3 1040.58 1058.45 1059.91 1066.48 1079.36C1068.65 1085.09 1069.06 1096.27 1061.83 1098.27Z" fill="black"/>
<path d="M1053.94 1108.47C1044.34 1100.58 1058.95 1068.17 1061.82 1057.02C1069.11 1035.08 1082.37 1015.4 1100.26 1000.71C1064.54 988.22 1056.91 958.12 1053.81 923.98C1053.31 913.39 1050.62 877.97 1058.58 871.92C1065.73 869.48 1066.2 882.1 1065.09 886.61C1064.5 892.56 1064.31 898.54 1064.16 904.51C1064.21 913.74 1065.04 922.92 1066.54 932.03C1069.59 962 1087.98 976.08 1115.93 982.8C1121.39 983.26 1123.46 989.11 1123.53 993.86C1124.24 1001.66 1119.62 1008.29 1113.69 1012.87C1101.67 1023.14 1089.41 1033.45 1081.12 1047.13C1076.51 1054.69 1073.1 1062.87 1070.11 1071.18C1066.88 1080.76 1064.08 1090.5 1061.59 1100.3C1060.9 1103.92 1058.78 1111.05 1053.94 1108.47Z" fill="black"/>
<path d="M152.82 1184.87C147.19 1185.25 138.85 1149.35 135.91 1144.16C126.46 1117.02 106.73 1088.73 75.65 1086.49C67.07 1086.35 63.18 1087.08 62.6 1076.73C62.43 1071.35 63.66 1064.37 69.83 1063.11C77.58 1059.13 84.8 1054.1 91.76 1048.89C112.68 1031.95 125 1005.65 127.77 979.14C128.79 970.29 127.14 961.6 125.46 953.06C125.24 948.51 126.66 937.77 133.2 940.47C138.78 946.78 137.87 956.68 139.04 964.61C140.65 1002.99 125.91 1044.06 95.99 1069C120.38 1079.28 135.66 1105 144.33 1128.59C149.09 1140.89 152.72 1153.59 157.42 1165.91C159.66 1171.67 160.05 1182.86 152.82 1184.87Z" fill="black"/>
<path d="M149.83 1184.62C141.21 1178.12 147.86 1162.78 148.33 1153.66C153.05 1119.72 164.59 1085.67 188.63 1060.46C139.56 1043.44 129.34 1003.96 128.33 956.69C128.06 952.07 127.8 947.1 130.1 942.9C132.05 938.85 136.32 938.78 137.99 943.19C141.36 959.47 139.39 976.93 144.19 993.17C151.99 1023.36 182.59 1037.29 210.09 1044.81C214.77 1049 214.42 1057.03 212.38 1062.48C210.81 1066.72 206.35 1068.51 203.1 1071.26C191.67 1080.54 182.42 1092.22 175.4 1105.13C165.51 1122.96 161.41 1143.08 158.35 1163.04C156.48 1169.03 158.44 1184.98 149.83 1184.62Z" fill="black"/>
<path d="M75.92 1356.36C70.88 1351.35 71.42 1341.07 75.87 1335.82C113.1 1303.42 152.04 1273.07 190.63 1242.31C200.2 1234.7 209.77 1227.08 219.34 1219.47C226.69 1214.86 228.01 1228.52 226.71 1233.21C226.29 1235.26 225.49 1238.11 223.74 1239.5C203.43 1255.67 183.11 1271.83 162.79 1288C134.91 1310.16 107.14 1332.45 80.27 1355.85C78.96 1356.99 77.39 1357.4 75.92 1356.36Z" fill="black"/>
<path d="M236.13 226.09C231.86 221.5 231.99 213.67 229.01 208.09C224.52 196.57 217.64 185.36 206.66 179.06C201.94 175.94 194.52 176.39 191.87 170.72C187.87 160.79 191.59 152.17 200.97 147.5C212.23 137.52 223.27 125.41 226.03 110.13C228.43 101.42 222.06 88.6 231.15 82.82C238.69 82.78 237.04 95.3 237.79 100.46C238.53 122.59 229.36 144.19 213.57 159.59C223.92 166.93 231.21 177.79 236.15 189.35C239.6 198.86 245.21 208.89 243.44 219.27C242.93 222.57 240.26 228.57 236.13 226.09Z" fill="black"/>
<path d="M235.75 239.6C228.01 230.87 235.23 218.02 237.02 208.15C241.64 191.95 247.3 175.35 259.27 163C243.03 153.9 235.14 136.14 230.16 119.02C227.82 110.59 221.43 86.44 232.38 82.85C239.18 84.91 236.78 94.1 238.05 99.47C239.1 104.95 240.9 110.22 242.78 115.47C247.43 129.97 258.7 141.57 272.95 146.84C275.05 147.32 277.17 146.98 279.26 146.84C283.96 147.9 284.5 154.32 284.47 158.31C285.01 166.34 278.35 170.55 272.62 174.68C265.16 180.8 258.4 188.01 254.31 196.83C250.16 206.06 247.2 215.76 244.78 225.57C243.26 229.91 242.73 242.76 235.75 239.6Z" fill="black"/>
<path d="M318.54 116.45C302.59 89.35 286.64 62.25 270.67 35.16C265.57 25.83 256.53 15.88 261.47 4.62999C264.76 -3.80001 270.55 1.78998 272.26 7.75998C290.03 38.1 308 68.33 325.78 98.67C330.32 103.51 326.5 125.81 318.54 116.45Z" fill="black"/>
<path d="M107.83 402.81C72.9 386.17 36.43 371.74 5.27999 348.38C1.14999 346.6 0.699998 340.98 0.709998 337.05C0.949998 333.04 1.95999 326.87 6.69999 326.09C10.81 327.21 13.9 330.78 17.52 332.96C36.22 346.2 57.05 355.94 77.74 365.61C88.63 370.71 99.53 375.79 110.44 380.85C112.29 381.71 113.26 383.54 113.88 385.41C115.62 390.37 115.1 403.53 107.83 402.81Z" fill="black"/>
<path d="M924.68 162C922.79 161.03 921.88 159.35 921.21 157.37C917.04 145 927.35 134.78 934.57 126.04C947.84 110.53 961.4 95.28 974.38 79.53C992.61 57.4 1010.56 35.06 1028.65 12.81C1031.46 8.80997 1035.45 11.55 1036.36 15.51C1037.82 20.51 1037.62 26.68 1034.58 31.07C1018.61 50.75 1002.79 70.56 986.65 90.1C970.7 109.72 953.84 128.57 937.53 147.87C935.13 150.77 932.73 153.7 930.62 156.82C929.79 159.26 927.77 163.05 924.68 162Z" fill="black"/>
<path d="M1019.04 273.62C1015.05 270.06 1015.74 263.8 1013.93 259.09C1010.39 245.94 1006.18 231.04 993.46 223.92C990 222.23 986.45 220.98 982.69 220.16C979.81 219.98 976.72 219.32 975.73 216.22C973.47 210.42 973.37 200.87 979.46 197.43C995.94 191.57 1009.97 175.46 1010.54 157.55C1010.91 153.29 1015.69 146.58 1019.33 152.38C1026.11 169.42 1014.1 193.53 1001.97 205.76C1012.31 214.17 1018.03 226.93 1021.5 239.55C1023.69 248.43 1027.89 257.52 1026.36 266.81C1025.84 270.1 1023.17 276.11 1019.04 273.62Z" fill="black"/>
<path d="M1022.21 273.73C1015.54 263.8 1023.09 251.58 1025.84 241.46C1029.81 229.2 1037.77 218.78 1047.22 210.18C1024.26 199.62 1014.23 172.3 1012.92 148.51C1012.69 133.93 1024.32 130.65 1024.27 147.37C1026.74 171.66 1041.07 189.25 1065.67 193.19C1071.77 193.35 1073.83 195.42 1074.6 201.5C1076 213.15 1070.99 215.14 1062.57 220.88C1056 226.12 1049.69 231.65 1044.06 237.89C1039.5 243.1 1036.3 249.23 1034.1 255.77C1031.52 260.26 1030.11 279.99 1022.21 273.73Z" fill="black"/>
<path d="M1585.21 660.94C1583.4 660.87 1581.99 659.08 1581.38 657.53C1575.82 643.63 1568.5 630.5 1561.08 617.52C1544.92 588.07 1515.81 558.47 1479.78 561.34C1474.51 564.07 1470.8 559.03 1470.58 554.09C1469.56 547.12 1472.12 537.87 1480.65 538.47C1490.88 533.66 1500.12 526.91 1508.29 520.78C1535.39 499.75 1559.79 470.31 1563.8 435.19C1564.6 429.93 1561.3 425.16 1562.39 419.85C1563.34 409.29 1571.63 407.04 1573.73 418.85C1580.99 468.27 1547.34 515.22 1509.27 543.4C1530.84 551.21 1547.68 568.2 1560.34 586.86C1567.16 599.59 1605.37 652.84 1585.21 660.94Z" fill="black"/>
<path d="M1582.51 658.89C1574.69 644.51 1588.07 624.46 1591.73 609.81C1601.57 581.82 1617.6 555.1 1643.19 538.96C1607.13 524.44 1574.36 496.36 1566.87 456.64C1563.92 439.33 1558.82 411.96 1569.14 397.67C1581.11 396.11 1573.56 417.77 1574.48 424.44C1574.89 439.12 1577.62 454.07 1584.54 467.14C1598.22 492.94 1624.16 507.87 1650.15 518.93C1658.75 522.72 1667.23 527.31 1676.77 525.3C1689.94 526.16 1688.31 557.06 1668.69 548.76C1631.67 560.98 1608.41 594.95 1597.5 630.9C1593.88 636.05 1591.28 666.27 1582.51 658.89Z" fill="black"/>
<path d="M1404.48 359.07C1386.46 343.52 1437.34 304.85 1448.07 293.37C1458.13 284.08 1468.19 274.8 1478.27 265.53C1484.97 260.52 1485.72 272.67 1483.79 276.74C1483.12 278.86 1482.08 281.05 1480.42 282.58C1457.41 304.46 1432.44 324.62 1411.88 348.9C1411.13 352.82 1409.33 359.14 1404.48 359.07Z" fill="black"/>
<path d="M1438.01 401.08C1435.37 395.46 1437.26 386.57 1442.81 383.33C1446.74 381.61 1451 380.64 1455.05 379.21C1468.46 374.97 1481.91 370.8 1495.37 366.71C1503.79 365.7 1499.83 384.27 1494.22 385.92C1478.62 390.68 1463.03 395.47 1447.51 400.48C1444.38 400.83 1440.27 404.79 1438.01 401.08Z" fill="black"/>
<path d="M1352.27 309.52C1347.73 301.22 1352.82 290.85 1354.75 282.34C1357.58 274.61 1358.12 265.36 1363.4 258.85C1370.1 253.83 1370.85 266 1368.93 270.06C1366.51 277.53 1364.37 285.09 1362.25 292.64C1361.14 297.25 1360.32 313.86 1352.27 309.52Z" fill="black"/>
<path d="M1310.9 745.78C1310.98 745.21 1311.06 744.65 1311.14 744.08C1311.02 744.69 1310.89 745.29 1310.75 745.9C1310.8 745.86 1310.86 745.82 1310.9 745.78ZM1357.02 392.78C1363.84 390.85 1363.91 402.54 1362.6 406.83C1361.07 417.34 1359.6 427.85 1358.19 438.37C1356.16 464.6 1350.78 493.09 1349.76 506.6C1349.09 511.9 1348.42 517.19 1347.72 522.49C1347.72 522.54 1347.71 522.58 1347.7 522.62C1342.06 571.12 1336.87 619.69 1331.09 668.17C1326.08 709.13 1321.54 750.19 1314.35 790.83C1313.5 798.27 1310.76 807.76 1301.76 807.93C1300.95 808.06 1300.08 808.23 1299.21 808.34C1298.94 808.63 1298.67 808.91 1298.38 809.18C1297.41 811.36 1295.86 812.84 1293.31 812.95C1293.2 812.86 1293.08 812.76 1292.98 812.67C1290.67 813.54 1288.05 813.83 1285.09 813.36C1277.49 811.87 1252.29 810.17 1246 803.78C1245.11 804.18 1244 804.31 1242.64 804.07C1236.15 794.25 1239.16 778.17 1237.37 766.55C1234.62 713.23 1231.81 659.91 1228.03 606.65C1224.46 534.79 1211.1 462.19 1215.03 390.46C1217.99 385.21 1220.41 385.8 1222 388.6C1222.78 386.57 1224.09 384.9 1226.29 384.55C1236.58 384.31 1246.88 384.91 1257.17 384.9C1288.13 386.1 1319.68 382.52 1350.37 385.99C1352.61 387.95 1354.34 390.8 1355.64 394.35C1356.02 393.79 1356.49 393.27 1357.02 392.78Z" fill="black"/>
<path d="M1295.99 864.52C1313.93 874.13 1325.54 894.2 1323.25 914.66C1318.17 946.38 1281.89 980.16 1249.11 963.92C1215.16 945.26 1223.2 895.58 1245.43 870.6C1257.34 856.84 1281.7 851.93 1295.99 864.52Z" fill="black"/>
</svg>
