<svg xmlns="http://www.w3.org/2000/svg" version="1.1" xmlns:xlink="http://www.w3.org/1999/xlink" width="500" height="500" viewBox="0 0 500 500"><svg xml:space="preserve" width="500" height="500" data-version="2" data-id="lg_KQSwAm3higKttXKx7m" viewBox="0 0 568 500" x="0" y="0"><rect width="100%" height="100%" fill="transparent"></rect><circle r="104.24" fill="none" stroke="#000" transform="translate(329.51 238)scale(2.2256)"></circle><path d="M65.165 484.11q-27.23 0-43.51-13.91-16.28-13.91-16.28-35.82 0-25.45 25.45-52.69 28.42-30.19 83.18-54.46 54.76-24.27 141.78-46.77 6.52-24.27 15.99-72.81-25.46 49.72-55.06 71.04-9.47 6.51-15.98 6.51-11.84 0-11.84-15.39 0-21.32 26.64-69.86 1.77-3.55 7.4-6.81 5.62-3.25 9.17-3.25 3.56 0 2.96 2.36l-.59 2.96q-4.14 6.52-10.06 18.36-5.92 11.84-13.62 28.41-5.33 13.03-5.33 21.91 0 8.28 5.33 8.28t17.76-13.02q16.58-15.98 46.18-72.22 2.37-5.92 10.65-5.92 8.29 0 8.29 7.69 0 13.03-3.55 34.63-3.55 21.61-11.25 51.8 4.15-1.18 7.7-1.18h7.1q13.03 0 25.16 4.14 12.14 4.15 12.14 14.8 0 9.48-10.66 19.54-1.77 1.78-2.96 1.78-2.37 0-2.37-1.78t1.19-2.96q7.69-7.7 7.69-13.62 0-11.84-24.27-11.84-4.14 0-10.06.6-5.92.59-13.62 1.77-22.49 83.47-72.22 133.2-27.83 28.42-63.35 45.59-39.07 18.94-75.18 18.94m11.84-9.47q47.36 0 95.31-42.63 56.24-51.5 81.7-140.89-20.13 5.33-35.52 9.77-15.39 4.44-25.46 7.99-21.9 6.51-41.14 13.61-19.24 7.11-35.23 14.21-45.58 20.72-69.26 48.55-20.72 24.27-20.72 47.95 0 19.53 13.91 30.49 13.91 10.95 36.41 10.95"></path><rect width="325.6" height="303.1" x="-162.8" y="-151.55" fill="none" rx="0" ry="0" transform="translate(168.68 333.06)"></rect><path d="M368.265 289.93q-8.88 0-15.68-5.32-6.81-5.33-8.59-13.03-2.37-7.69-2.37-13.02 0-3.55 1.19-4.74 0-4.73 4.14-4.73 1.19 0 1.78.59 10.65 13.02 27.82 19.53 0-5.32-1.77-11.24-2.37-8.88-8.29-16.58-11.84-15.98-11.84-34.34 0-42.62 52.09-62.16 14.21-4.73 24.87-4.73 23.09 0 23.09 18.94 0 11.84-7.7 23.09-3.55 4.74-5.92 5.33-2.37.59-2.37-2.37 0-2.37 1.78-4.74 4.14-7.69 4.14-13.02 0-8.88-12.43-8.88h-2.96q-1.78 0-3.55.59-40.26 7.11-54.47 46.77-1.77 5.92-1.77 11.25 0 9.47 8.88 24.86 9.47 15.39 10.06 24.27 0 4.74-.59 6.52 3.55.59 7.1.88 3.56.3 7.11.3 10.65 0 20.13-2.37 15.39-4.14 29-12.13 13.62-8 24.87-21.02 1.77-2.37 4.14-2.37 2.37 0 2.37 2.96t-2.37 5.33q-31.37 29.6-59.2 34.93-10.65 1.77-20.13 1.77-4.14 0-7.99-.29-3.85-.3-7.4-.89-6.51 10.06-17.17 10.06m-3.55-10.06q4.74 0 7.7-2.96-14.21-4.14-24.87-14.8 0 7.7 5.63 12.73 5.62 5.03 11.54 5.03"></path><rect width="140.9" height="149.77" x="-70.45" y="-74.89" fill="none" rx="0" ry="0" transform="translate(412.57 215.55)"></rect></svg></svg>